<?xml version="1.0" encoding="UTF-8"?>
<!-- Generator: Adobe Illustrator 20.1.0, SVG Export Plug-In . SVG Version: 6.00 Build 0)  -->
<svg version="1.1" id="Layer_1" xmlns="http://www.w3.org/2000/svg" xmlns:xlink="http://www.w3.org/1999/xlink" x="0px" y="0px" viewBox="0 0 163 50" style="enable-background:new 0 0 163 50;" xml:space="preserve">
<style type="text/css">
	.st0{fill:#FFFFFF;}
</style>
<g>
	<path class="st0" d="M25,4.1c11.5,0,20.9,9.4,20.9,20.9c0,11.5-9.4,20.9-20.9,20.9C13.5,45.8,4.1,36.5,4.1,25   C4.1,13.5,13.5,4.1,25,4.1 M25,0C11.2,0,0,11.2,0,25s11.2,25,25,25c13.8,0,25-11.2,25-25S38.8,0,25,0L25,0z"/>
	<g>
		<path class="st0" d="M10.1,16.6h14.2v4.3H15v3h8.4V28H15v6.3h-4.9V16.6z"/>
		<path class="st0" d="M25.3,16.6h8.4c2.7,0,4.6,0.7,5.8,1.9c1,1,1.6,2.4,1.6,4.1v0.1c0,2.7-1.4,4.5-3.6,5.5l4.2,6.2H36L32.4,29    h-2.2v5.4h-4.9V16.6z M33.5,25.1c1.6,0,2.6-0.8,2.6-2.1V23c0-1.4-1-2.1-2.7-2.1h-3.2v4.3H33.5z"/>
	</g>
</g>
<g>
	<path class="st0" d="M59.6,17.4h7.7v0.7h-6.9v4.5h6.2v0.7h-6.2v4.9h-0.8V17.4z"/>
	<path class="st0" d="M68.9,23.7v-6.4h0.8v6.3c0,2.6,1.4,4.1,3.7,4.1c2.2,0,3.6-1.3,3.6-4v-6.4h0.8v6.3c0,3.1-1.8,4.8-4.5,4.8   C70.7,28.5,68.9,26.8,68.9,23.7z"/>
	<path class="st0" d="M80.1,17.4h0.8l7.5,9.5v-9.5h0.8v10.9h-0.6l-7.7-9.7v9.7h-0.8V17.4z"/>
	<path class="st0" d="M91.7,17.4h3.6c3.4,0,5.8,2.4,5.8,5.4v0c0,3.1-2.4,5.5-5.8,5.5h-3.6V17.4z M95.3,27.5c3,0,5-2.1,5-4.7v0   c0-2.6-1.9-4.7-5-4.7h-2.8v9.4H95.3z"/>
	<path class="st0" d="M103.1,17.4h4.6c1.3,0,2.4,0.4,3.1,1.1c0.5,0.5,0.8,1.2,0.8,2v0c0,1.8-1.4,2.9-3.2,3.1l3.6,4.7h-1l-3.5-4.5   h-3.6v4.5h-0.8V17.4z M107.6,23c1.8,0,3.2-0.9,3.2-2.5v0c0-1.5-1.2-2.4-3.1-2.4h-3.7V23H107.6z"/>
	<path class="st0" d="M117.7,17.3h0.8l5.1,11h-0.9l-1.4-3.1h-6.4l-1.4,3.1h-0.8L117.7,17.3z M121,24.5l-2.9-6.3l-2.9,6.3H121z"/>
	<path class="st0" d="M125.3,17.4h0.8v10.9h-0.8V17.4z"/>
	<path class="st0" d="M127.9,26.7l0.5-0.6c1.2,1.1,2.3,1.6,3.9,1.6c1.6,0,2.8-0.9,2.8-2.2v0c0-1.2-0.6-1.8-3.1-2.3   c-2.6-0.5-3.7-1.4-3.7-3.1v0c0-1.6,1.5-2.9,3.5-2.9c1.6,0,2.6,0.4,3.7,1.3l-0.5,0.6c-1-0.9-2.1-1.2-3.3-1.2c-1.6,0-2.7,0.9-2.7,2.1   v0c0,1.2,0.6,1.9,3.2,2.4c2.5,0.5,3.6,1.4,3.6,3v0c0,1.8-1.5,3-3.6,3C130.6,28.4,129.3,27.9,127.9,26.7z"/>
	<path class="st0" d="M138,17.4h0.8v10.9H138V17.4z"/>
	<path class="st0" d="M141.3,17.4h0.8l7.5,9.5v-9.5h0.8v10.9h-0.6l-7.7-9.7v9.7h-0.8V17.4z"/>
	<path class="st0" d="M152.4,22.9L152.4,22.9c0-3,2.1-5.7,5.4-5.7c1.8,0,2.9,0.5,4,1.4l-0.5,0.6c-0.9-0.7-1.9-1.3-3.5-1.3   c-2.7,0-4.5,2.2-4.5,4.9v0c0,2.8,1.8,4.9,4.7,4.9c1.4,0,2.7-0.6,3.5-1.2v-3.1h-3.7v-0.7h4.4v4.2c-1,0.9-2.5,1.6-4.3,1.6   C154.5,28.5,152.4,25.9,152.4,22.9z"/>
	<path class="st0" d="M59.4,31H65c1.6,0,2.8,0.4,3.6,1.2c0.7,0.7,1,1.6,1,2.8v0c0,2-1.1,3.2-2.6,3.8l3,4.4h-3.1l-2.6-3.9h-2.1v3.9   h-2.7V31z M64.9,37c1.3,0,2.1-0.7,2.1-1.7v0c0-1.2-0.8-1.7-2.1-1.7h-2.7V37H64.9z"/>
	<path class="st0" d="M71.2,31h9.2v2.4h-6.6v2.5h5.8v2.4h-5.8v2.6h6.6v2.4h-9.3V31z"/>
	<path class="st0" d="M81.5,37.2L81.5,37.2c0-3.5,2.7-6.4,6.4-6.4c2.2,0,3.5,0.6,4.8,1.7l-1.7,2c-0.9-0.8-1.8-1.2-3.2-1.2   c-2,0-3.5,1.7-3.5,3.8v0c0,2.2,1.5,3.9,3.7,3.9c1,0,1.9-0.2,2.5-0.7v-1.7h-2.7v-2.3h5.3v5.3c-1.3,1.1-3,1.9-5.2,1.9   C84.1,43.5,81.5,40.8,81.5,37.2z"/>
	<path class="st0" d="M94.7,38v-7h2.7V38c0,2,1,3,2.6,3c1.6,0,2.6-1,2.6-2.9v-7h2.7v6.9c0,3.7-2.1,5.5-5.4,5.5   C96.7,43.5,94.7,41.6,94.7,38z"/>
	<path class="st0" d="M107.2,31h2.7v9.8h6.1v2.4h-8.8V31z"/>
	<path class="st0" d="M121.3,30.9h2.5l5.2,12.3h-2.8l-1.1-2.7H120l-1.1,2.7h-2.7L121.3,30.9z M124.2,38.1l-1.6-4l-1.6,4H124.2z"/>
	<path class="st0" d="M131.4,33.5h-3.7V31h10.1v2.5h-3.7v9.8h-2.7V33.5z"/>
	<path class="st0" d="M137.9,37.2L137.9,37.2c0-3.5,2.7-6.4,6.5-6.4c3.8,0,6.5,2.8,6.5,6.3v0c0,3.5-2.7,6.3-6.5,6.3   S137.9,40.7,137.9,37.2z M148.1,37.2L148.1,37.2c0-2.1-1.5-3.9-3.7-3.9c-2.2,0-3.7,1.7-3.7,3.8v0c0,2.1,1.5,3.8,3.7,3.8   C146.6,41,148.1,39.3,148.1,37.2z"/>
	<path class="st0" d="M152.4,31h5.6c1.6,0,2.8,0.4,3.6,1.2c0.7,0.7,1,1.6,1,2.8v0c0,2-1.1,3.2-2.6,3.8l3,4.4h-3.1l-2.6-3.9h-2.1v3.9   h-2.7V31z M157.8,37c1.3,0,2.1-0.7,2.1-1.7v0c0-1.2-0.8-1.7-2.1-1.7h-2.7V37H157.8z"/>
	<g>
		<path class="st0" d="M59.6,5.3h2.9c0.8,0,1.5,0.2,1.9,0.7c0.3,0.4,0.5,0.8,0.5,1.4v0c0,1.1-0.6,1.7-1.5,2l1.8,2.5h-1.4l-1.6-2.3    h-1.4v2.3h-1.1V5.3z M62.4,8.5c0.8,0,1.3-0.4,1.3-1.1v0c0-0.7-0.5-1.1-1.4-1.1h-1.7v2.2H62.4z"/>
		<path class="st0" d="M65.8,9.4L65.8,9.4c0-1.4,1-2.6,2.4-2.6c1.6,0,2.4,1.2,2.4,2.6c0,0.1,0,0.2,0,0.3H67c0.1,0.8,0.7,1.2,1.4,1.2    c0.6,0,0.9-0.2,1.3-0.6l0.7,0.6c-0.5,0.6-1.1,0.9-2,0.9C66.9,11.9,65.8,10.9,65.8,9.4z M69.5,9c-0.1-0.7-0.5-1.3-1.2-1.3    c-0.7,0-1.2,0.5-1.3,1.3H69.5z"/>
		<path class="st0" d="M71.7,12.8l0.4-0.8c0.5,0.3,1.1,0.5,1.8,0.5c1,0,1.6-0.5,1.6-1.5v-0.4c-0.4,0.5-0.9,0.9-1.7,0.9    c-1.2,0-2.2-0.9-2.2-2.3v0c0-1.5,1.1-2.3,2.2-2.3c0.8,0,1.3,0.4,1.7,0.8V6.9h1.1v3.9c0,0.8-0.2,1.4-0.6,1.9    c-0.4,0.4-1.1,0.7-2,0.7C73.1,13.3,72.3,13.1,71.7,12.8z M75.5,9.1L75.5,9.1c0-0.8-0.7-1.4-1.4-1.4c-0.8,0-1.4,0.5-1.4,1.4v0    c0,0.8,0.6,1.4,1.4,1.4C74.8,10.5,75.5,9.9,75.5,9.1z"/>
		<path class="st0" d="M78,5.1h1.2v1.1H78V5.1z M78,6.9h1.1v4.9H78V6.9z"/>
		<path class="st0" d="M80.2,11.2l0.5-0.8c0.5,0.4,1.1,0.6,1.6,0.6c0.5,0,0.8-0.2,0.8-0.5v0c0-0.4-0.5-0.5-1.1-0.7    c-0.7-0.2-1.5-0.5-1.5-1.4v0c0-0.9,0.8-1.5,1.8-1.5c0.6,0,1.3,0.2,1.8,0.6l-0.4,0.8c-0.5-0.3-1-0.5-1.4-0.5    c-0.4,0-0.7,0.2-0.7,0.5v0c0,0.4,0.5,0.5,1.1,0.7c0.7,0.2,1.5,0.6,1.5,1.4v0c0,1-0.8,1.5-1.8,1.5C81.6,11.9,80.8,11.7,80.2,11.2z"/>
		<path class="st0" d="M85.5,10.5V7.9h-0.6v-1h0.6V5.6h1.1v1.4h1.3v1h-1.3v2.4c0,0.4,0.2,0.6,0.6,0.6c0.3,0,0.5-0.1,0.7-0.2v0.9    c-0.3,0.2-0.6,0.3-1,0.3C86.1,11.9,85.5,11.6,85.5,10.5z"/>
		<path class="st0" d="M88.7,9.4L88.7,9.4c0-1.4,1-2.6,2.4-2.6c1.6,0,2.4,1.2,2.4,2.6c0,0.1,0,0.2,0,0.3h-3.6    c0.1,0.8,0.7,1.2,1.4,1.2c0.6,0,0.9-0.2,1.3-0.6l0.7,0.6c-0.5,0.6-1.1,0.9-2,0.9C89.8,11.9,88.7,10.9,88.7,9.4z M92.3,9    c-0.1-0.7-0.5-1.3-1.2-1.3c-0.7,0-1.2,0.5-1.3,1.3H92.3z"/>
		<path class="st0" d="M94.6,6.9h1.1V8c0.3-0.7,0.9-1.2,1.7-1.2V8h-0.1c-1,0-1.7,0.6-1.7,1.9v1.9h-1.1V6.9z"/>
		<path class="st0" d="M98.1,9.4L98.1,9.4c0-1.4,1-2.6,2.4-2.6c1.6,0,2.4,1.2,2.4,2.6c0,0.1,0,0.2,0,0.3h-3.6    c0.1,0.8,0.7,1.2,1.4,1.2c0.6,0,0.9-0.2,1.3-0.6l0.7,0.6c-0.5,0.6-1.1,0.9-2,0.9C99.2,11.9,98.1,10.9,98.1,9.4z M101.8,9    c-0.1-0.7-0.5-1.3-1.2-1.3c-0.7,0-1.2,0.5-1.3,1.3H101.8z"/>
		<path class="st0" d="M103.8,9.4L103.8,9.4c0-1.7,1.1-2.6,2.3-2.6c0.8,0,1.3,0.4,1.7,0.9V5h1.1v6.8h-1.1V11    c-0.4,0.5-0.9,0.9-1.7,0.9C104.9,11.9,103.8,11,103.8,9.4z M107.8,9.4L107.8,9.4c0-1-0.7-1.6-1.4-1.6c-0.8,0-1.4,0.6-1.4,1.6v0    c0,1,0.7,1.6,1.4,1.6C107.1,11,107.8,10.3,107.8,9.4z"/>
		<path class="st0" d="M112.7,6.9h1.2l1,3.4l1.1-3.4h1l1.1,3.4l1-3.4h1.1l-1.6,5h-1l-1.1-3.4l-1.1,3.4h-1L112.7,6.9z"/>
		<path class="st0" d="M121,5.1h1.2v1.1H121V5.1z M121.1,6.9h1.1v4.9h-1.1V6.9z"/>
		<path class="st0" d="M123.9,10.5V7.9h-0.6v-1h0.6V5.6h1.1v1.4h1.3v1H125v2.4c0,0.4,0.2,0.6,0.6,0.6c0.3,0,0.5-0.1,0.7-0.2v0.9    c-0.3,0.2-0.6,0.3-1,0.3C124.4,11.9,123.9,11.6,123.9,10.5z"/>
		<path class="st0" d="M127.5,5h1.1v2.6c0.3-0.5,0.8-0.9,1.5-0.9c1.1,0,1.8,0.7,1.8,1.9v3.1h-1.1V9c0-0.8-0.4-1.2-1.1-1.2    c-0.7,0-1.1,0.5-1.1,1.2v2.8h-1.1V5z"/>
	</g>
</g>
</svg>