<?xml version="1.0" encoding="utf-8"?>
<!-- Generator: Adobe Illustrator 24.1.2, SVG Export Plug-In . SVG Version: 6.00 Build 0)  -->
<svg version="1.1" id="Layer_1" xmlns="http://www.w3.org/2000/svg" xmlns:xlink="http://www.w3.org/1999/xlink" x="0px" y="0px"
	 viewBox="0 0 24 24" style="enable-background:new 0 0 24 24;" xml:space="preserve">
<style type="text/css">
	.st0{fill:#FFFFFF;}
</style>
<desc>Created with Sketch.</desc>
<g id="Page-1">
	<g id="Desktop-design" transform="translate(-1097.000000, -3054.000000)">
		<path id="Combined-Shape-Copy-4" class="st0" d="M1113.9,3054.1c4.4,0.2,6.8,2.6,7,7c0.1,1.1,0.1,1.6,0.1,3.8v2.3
			c0,2.2,0,2.7-0.1,3.8c-0.2,4.4-2.6,6.8-7,7c-1.3,0.1-1.7,0.1-4.9,0.1s-3.7,0-4.9-0.1c-4.4-0.2-6.8-2.6-7-7
			c-0.1-1.1-0.1-1.6-0.1-3.8v-2.3c0-2.2,0-2.7,0.1-3.8c0.2-4.4,2.6-6.8,7-7c1.1-0.1,1.6-0.1,3.8-0.1h2.3
			C1112.4,3054,1112.8,3054,1113.9,3054.1z M1109.9,3056.2h-1.8c-2.4,0-2.8,0-4,0.1c-3.3,0.1-4.8,1.7-4.9,4.9
			c-0.1,1.2-0.1,1.6-0.1,4.2v1.2c0,2.7,0,3.1,0.1,4.2c0.1,3.2,1.7,4.8,4.9,4.9c1.3,0.1,1.6,0.1,4.8,0.1c3.2,0,3.6,0,4.8-0.1
			c3.3-0.1,4.8-1.7,4.9-4.9c0.1-1.2,0.1-1.6,0.1-4.2v-1.2c0-2.7,0-3.1-0.1-4.2c-0.2-3.2-1.7-4.8-4.9-4.9
			C1112.7,3056.2,1112.3,3056.2,1109.9,3056.2z M1109,3059.8c3.4,0,6.2,2.8,6.2,6.2s-2.8,6.2-6.2,6.2s-6.2-2.8-6.2-6.2
			C1102.8,3062.6,1105.6,3059.8,1109,3059.8z M1109,3061.7c-2.4,0-4.3,1.9-4.3,4.3s1.9,4.3,4.3,4.3s4.3-1.9,4.3-4.3
			S1111.4,3061.7,1109,3061.7z M1115.4,3058.2c0.8,0,1.4,0.6,1.4,1.4c0,0.8-0.6,1.4-1.4,1.4s-1.4-0.6-1.4-1.4
			S1114.6,3058.2,1115.4,3058.2z"/>
	</g>
</g>
</svg>
