<?xml version="1.0" encoding="utf-8"?>
<!-- Generator: Adobe Illustrator 24.1.2, SVG Export Plug-In . SVG Version: 6.00 Build 0)  -->
<svg version="1.1" id="Layer_1" xmlns="http://www.w3.org/2000/svg" xmlns:xlink="http://www.w3.org/1999/xlink" x="0px" y="0px"
	 viewBox="0 0 18.2 18.2" style="enable-background:new 0 0 18.2 18.2;" xml:space="preserve">
<style type="text/css">
	.st0{fill-rule:evenodd;clip-rule:evenodd;fill:#FFFFFF;}
</style>
<desc>Created with Sketch.</desc>
<g id="Page-1">
	<g id="Desktop-design" transform="translate(-1174.000000, -3057.000000)">
		<g id="Group-Copy-4" transform="translate(1174.000000, 3057.000000)">
			<polygon id="Path" class="st0" points="4.2,18.2 0.2,18.2 0.2,6.2 4.2,6.2 			"/>
			<path id="Path_1_" class="st0" d="M2.2,4.4C1,4.4,0,3.4,0,2.2C0,1,1,0,2.2,0s2.2,1,2.2,2.2C4.4,3.4,3.4,4.4,2.2,4.4z"/>
			<path id="Path_2_" class="st0" d="M18.2,18.2h-4v-5.7c0-3.8-4-3.4-4,0v5.7h-4v-12h4v2.2c1.7-3.2,8-3.5,8,3.1V18.2z"/>
		</g>
	</g>
</g>
</svg>
