<?xml version="1.0" encoding="UTF-8" standalone="no"?>
<!DOCTYPE svg PUBLIC "-//W3C//DTD SVG 1.1//EN" "http://www.w3.org/Graphics/SVG/1.1/DTD/svg11.dtd">
<svg version="1.1" xmlns="http://www.w3.org/2000/svg" xmlns:xlink="http://www.w3.org/1999/xlink" preserveAspectRatio="xMidYMid meet" viewBox="0 0 112 18.87" width="112" height="18.87"><defs><path d="M112 0C112 0 112 0 112 0C112 11.32 112 17.61 112 18.87C112 18.87 112 18.87 112 18.87C44.8 18.87 7.47 18.87 0 18.87C0 18.87 0 18.87 0 18.87C0 7.55 0 1.26 0 0C0 0 0 0 0 0C67.2 0 104.53 0 112 0Z" id="b6NLvQVHr"></path><path d="M3.21 5.71C2.95 5.71 2.74 5.51 2.74 5.27C2.74 5.01 2.74 2.86 2.74 2.59C2.74 2.35 2.95 2.15 3.21 2.15C4.46 2.15 14.47 2.15 15.72 2.15C15.97 2.15 16.19 2.35 16.19 2.59C16.19 2.86 16.19 5.01 16.19 5.27C16.19 5.51 15.97 5.71 15.72 5.71C15.33 5.71 12.21 5.71 11.82 5.71C11.6 5.71 11.42 5.88 11.42 6.08C11.42 7.08 11.42 15.04 11.42 16.03C11.42 16.27 11.21 16.47 10.95 16.47C10.65 16.47 8.27 16.47 7.97 16.47C7.72 16.47 7.5 16.27 7.5 16.03C7.5 15.04 7.5 7.08 7.5 6.08C7.5 5.88 7.33 5.72 7.11 5.72C6.85 5.72 5.55 5.72 3.21 5.72" id="h9AjAt2Xc"></path><path d="M28.24 2.58C28.24 2.34 28.46 2.14 28.71 2.14C29.01 2.14 31.38 2.14 31.67 2.14C31.93 2.14 32.15 2.34 32.15 2.58C32.15 3.32 32.15 9.2 32.15 9.94C32.15 13.63 29.68 16.47 25.11 16.47C20.52 16.47 18.09 13.63 18.09 9.94C18.09 9.2 18.09 3.32 18.09 2.58C18.09 2.34 18.3 2.14 18.56 2.14C18.86 2.14 21.24 2.14 21.54 2.14C21.79 2.14 22.01 2.34 22.01 2.58C22.01 3.3 22.01 9 22.01 9.72C22.01 11.79 23.07 12.93 25.11 12.93C27.17 12.93 28.24 11.79 28.24 9.72C28.24 9.24 28.24 6.86 28.24 2.58" id="bZMmJIPhf"></path><path d="M34.38 2.59C34.38 2.35 34.59 2.15 34.85 2.15C35.55 2.15 41.15 2.15 41.85 2.15C45.77 2.15 47.57 4.54 47.57 7.39C47.57 9.28 46.73 11.04 44.91 11.98C44.71 12.07 44.67 12.29 44.79 12.45C45.07 12.82 47.31 15.74 47.59 16.11C47.71 16.27 47.59 16.47 47.4 16.47C47.02 16.47 44.03 16.47 43.65 16.47C43.36 16.47 43.09 16.33 42.91 16.11C42.67 15.79 40.76 13.25 40.52 12.93C40.38 12.75 40.12 12.64 39.89 12.64C39.77 12.64 38.8 12.64 38.67 12.64C38.46 12.64 38.28 12.8 38.28 13C38.28 13.31 38.28 15.73 38.28 16.04C38.28 16.27 38.07 16.48 37.81 16.48C37.51 16.48 35.15 16.48 34.85 16.48C34.6 16.48 34.38 16.27 34.38 16.04C34.38 15.14 34.38 10.66 34.38 2.59M38.67 5.49C38.46 5.49 38.28 5.66 38.28 5.86C38.28 6.17 38.28 8.64 38.28 8.95C38.28 9.15 38.46 9.31 38.67 9.31C38.97 9.31 41.34 9.31 41.63 9.31C43.2 9.31 43.79 8.41 43.79 7.42C43.79 6.32 43.2 5.49 41.63 5.49C41.04 5.49 38.97 5.49 38.67 5.49Z" id="c1ohx6HASL"></path><path d="M53.92 16.03C53.92 16.27 53.7 16.47 53.45 16.47C53.15 16.47 50.76 16.47 50.46 16.47C50.21 16.47 49.99 16.27 49.99 16.03C49.99 14.69 49.99 3.94 49.99 2.59C49.99 2.35 50.21 2.15 50.46 2.15C50.7 2.15 52.62 2.15 52.86 2.15C53.15 2.15 53.45 2.28 53.62 2.5C54.25 3.24 59.29 9.13 59.92 9.86C59.99 9.97 60.15 9.92 60.15 9.79C60.15 9.07 60.15 3.31 60.15 2.59C60.15 2.35 60.37 2.15 60.62 2.15C60.92 2.15 63.29 2.15 63.58 2.15C63.84 2.15 64.05 2.35 64.05 2.59C64.05 3.94 64.05 14.69 64.05 16.03C64.05 16.27 63.84 16.47 63.58 16.47C63.34 16.47 61.45 16.47 61.21 16.47C60.91 16.47 60.62 16.34 60.44 16.12C59.81 15.39 54.78 9.51 54.15 8.78C54.07 8.67 53.91 8.72 53.91 8.85C53.91 9.33 53.91 11.73 53.91 16.03" id="bqQC7RZiF"></path><path d="M91.44 2.58C91.44 2.34 91.66 2.14 91.91 2.14C92.21 2.14 94.58 2.14 94.87 2.14C95.13 2.14 95.34 2.34 95.34 2.58C95.34 3.32 95.34 9.2 95.34 9.94C95.34 13.63 92.87 16.47 88.31 16.47C83.72 16.47 81.29 13.63 81.29 9.94C81.29 9.2 81.29 3.32 81.29 2.58C81.29 2.34 81.5 2.14 81.76 2.14C82.06 2.14 84.44 2.14 84.74 2.14C84.99 2.14 85.21 2.34 85.21 2.58C85.21 3.3 85.21 9 85.21 9.72C85.21 11.79 86.27 12.93 88.31 12.93C90.36 12.93 91.44 11.79 91.44 9.72C91.44 9.24 91.44 6.86 91.44 2.58" id="b5mdG7KRE"></path><path d="M97.2 12.54C97.18 12.29 97.42 12.04 97.69 12.04C97.95 12.04 100.01 12.04 100.27 12.04C100.71 12.04 100.81 12.13 101.04 12.5C101.3 12.97 102.09 13.4 103.43 13.4C104.86 13.4 105.32 12.95 105.32 12.54C105.32 11.95 104.57 11.59 102.78 11.02C100.41 10.28 97.29 9.21 97.29 6.33C97.29 3.66 99.72 2 103.12 2C106.6 2 109.03 3.7 109.22 6.2C109.24 6.45 108.99 6.7 108.72 6.7C108.45 6.7 106.33 6.7 106.06 6.7C105.7 6.7 105.53 6.54 105.42 6.22C105.19 5.63 104.46 5.09 103.2 5.09C101.9 5.09 101.38 5.58 101.38 6.04C101.38 6.6 102.07 6.88 103.85 7.46C105.91 8.14 109.43 9.28 109.43 12.34C109.43 15.06 106.9 16.49 103.5 16.49C100.12 16.49 97.46 15.1 97.2 12.54" id="a2zqm4SiGE"></path><path d="M66.28 16.47C66.03 16.44 65.92 16.16 66.11 15.97C66.57 15.54 70.26 12.07 70.72 11.64C70.92 11.46 71.22 11.56 71.26 11.79C71.26 11.93 71.26 12.98 71.26 13.11C71.26 13.13 71.27 13.14 71.29 13.14C72.01 13.14 77.81 13.14 78.54 13.14C78.78 13.14 78.98 13.33 78.98 13.56C78.98 13.81 78.98 15.79 78.98 16.04C78.98 16.27 78.77 16.47 78.52 16.47C77.7 16.47 73.62 16.47 66.28 16.47" id="fFOjLDcSk"></path><path d="M78.98 4.07C78.94 3.84 78.64 3.74 78.44 3.91C78.33 4.03 77.37 4.92 77.25 5.03C77.22 5.05 77.19 5.04 77.17 5.01C77.17 5.01 77.17 5.01 77.17 5.01C76.39 3.2 74.45 2.15 72.3 2.15C72.3 2.15 72.3 2.15 72.3 2.15C69.74 2.15 66.83 3.74 66.83 7.2C66.83 7.52 66.97 7.61 67.18 7.61C67.48 7.61 69.93 7.61 70.23 7.61C70.46 7.61 70.56 7.52 70.56 7.2C70.56 6.18 71.27 5.62 72.24 5.62C72.24 5.62 72.24 5.62 72.24 5.62C73.7 5.62 74.57 6.41 74.57 7.54C74.57 7.54 74.57 7.54 74.57 7.54C74.57 7.54 74.57 7.54 74.57 7.54C74.38 7.72 72.91 9.1 72.73 9.27C72.54 9.46 72.64 9.74 72.89 9.77C73.46 9.77 77.97 9.77 78.54 9.77C78.78 9.77 78.98 9.58 78.98 9.36C78.98 9 78.98 7.24 78.98 4.07" id="bB3n51sWH"></path></defs><g><g><g><g><use xlink:href="#b6NLvQVHr" opacity="1" fill-opacity="0" stroke="#000000" stroke-width="1" stroke-opacity="0"></use></g></g><g><use xlink:href="#h9AjAt2Xc" opacity="1" fill="#ffffff" fill-opacity="1"></use><g><use xlink:href="#h9AjAt2Xc" opacity="1" fill-opacity="0" stroke="#000000" stroke-width="1" stroke-opacity="0"></use></g></g><g><use xlink:href="#bZMmJIPhf" opacity="1" fill="#ffffff" fill-opacity="1"></use><g><use xlink:href="#bZMmJIPhf" opacity="1" fill-opacity="0" stroke="#000000" stroke-width="1" stroke-opacity="0"></use></g></g><g><use xlink:href="#c1ohx6HASL" opacity="1" fill="#ffffff" fill-opacity="1"></use><g><use xlink:href="#c1ohx6HASL" opacity="1" fill-opacity="0" stroke="#000000" stroke-width="1" stroke-opacity="0"></use></g></g><g><use xlink:href="#bqQC7RZiF" opacity="1" fill="#ffffff" fill-opacity="1"></use><g><use xlink:href="#bqQC7RZiF" opacity="1" fill-opacity="0" stroke="#000000" stroke-width="1" stroke-opacity="0"></use></g></g><g><use xlink:href="#b5mdG7KRE" opacity="1" fill="#ffffff" fill-opacity="1"></use><g><use xlink:href="#b5mdG7KRE" opacity="1" fill-opacity="0" stroke="#000000" stroke-width="1" stroke-opacity="0"></use></g></g><g><use xlink:href="#a2zqm4SiGE" opacity="1" fill="#ffffff" fill-opacity="1"></use><g><use xlink:href="#a2zqm4SiGE" opacity="1" fill-opacity="0" stroke="#000000" stroke-width="1" stroke-opacity="0"></use></g></g><g><use xlink:href="#fFOjLDcSk" opacity="1" fill="#ffffff" fill-opacity="1"></use><g><use xlink:href="#fFOjLDcSk" opacity="1" fill-opacity="0" stroke="#000000" stroke-width="1" stroke-opacity="0"></use></g></g><g><use xlink:href="#bB3n51sWH" opacity="1" fill="#ffffff" fill-opacity="1"></use><g><use xlink:href="#bB3n51sWH" opacity="1" fill-opacity="0" stroke="#000000" stroke-width="1" stroke-opacity="0"></use></g></g></g></g></svg>