<?xml version="1.0" encoding="utf-8"?>
<!-- Generator: Adobe Illustrator 18.1.1, SVG Export Plug-In . SVG Version: 6.00 Build 0)  -->
<svg version="1.1" xmlns="http://www.w3.org/2000/svg" xmlns:xlink="http://www.w3.org/1999/xlink" x="0px" y="0px"
	 viewBox="0 0 116 46" enable-background="new 0 0 116 46" xml:space="preserve" width="116" height="46">
<g id="Positive">
	<rect opacity="0" fill="#413B4F" width="116" height="46"/>
	<g>
		<path fill="#FFFFFF" d="M3.322,21.347c-0.264,0-0.487-0.209-0.487-0.457v-2.777c0-0.247,0.223-0.457,0.487-0.457h12.956
			c0.264,0,0.487,0.209,0.487,0.457v2.777c0,0.247-0.223,0.457-0.487,0.457h-4.041c-0.223,0-0.406,0.171-0.406,0.38v10.311
			c0,0.247-0.223,0.456-0.487,0.456H8.257c-0.264,0-0.487-0.209-0.487-0.456V21.728c0-0.209-0.183-0.38-0.406-0.38H3.322"/>
		<path fill="#FFFFFF" d="M29.253,18.103c0-0.247,0.224-0.457,0.487-0.457h3.066c0.264,0,0.488,0.209,0.488,0.457v7.619
			c0,3.824-2.559,6.773-7.29,6.773c-4.751,0-7.27-2.949-7.27-6.773v-7.619c0-0.247,0.223-0.457,0.487-0.457h3.087
			c0.264,0,0.487,0.209,0.487,0.457v7.391c0,2.15,1.096,3.329,3.209,3.329c2.132,0,3.249-1.179,3.249-3.329V18.103"/>
		<path fill="#FFFFFF" d="M35.607,18.113c0-0.247,0.223-0.457,0.487-0.457h7.25c4.061,0,5.93,2.473,5.93,5.422
			c0,1.959-0.873,3.785-2.762,4.756c-0.203,0.095-0.243,0.323-0.122,0.495l2.904,3.786c0.122,0.171,0,0.38-0.203,0.38h-3.878
			c-0.304,0-0.589-0.152-0.772-0.38l-2.477-3.291c-0.142-0.19-0.406-0.304-0.65-0.304h-1.259c-0.223,0-0.406,0.171-0.406,0.38v3.14
			c0,0.247-0.223,0.456-0.488,0.456h-3.066c-0.264,0-0.487-0.209-0.487-0.456V18.113 M43.121,21.119h-3.066
			c-0.223,0-0.406,0.171-0.406,0.38v3.196c0,0.209,0.183,0.38,0.406,0.38h3.066c1.624,0,2.234-0.932,2.234-1.959
			C45.354,21.975,44.745,21.119,43.121,21.119z"/>
		<path fill="#FFFFFF" d="M55.841,32.039c0,0.247-0.223,0.456-0.487,0.456h-3.087c-0.264,0-0.487-0.209-0.487-0.456V18.113
			c0-0.247,0.223-0.457,0.487-0.457h2.478c0.304,0,0.609,0.133,0.792,0.361l6.518,7.628c0.081,0.114,0.244,0.057,0.244-0.076v-7.457
			c0-0.247,0.223-0.457,0.487-0.457h3.066c0.264,0,0.487,0.209,0.487,0.457v13.925c0,0.247-0.223,0.456-0.487,0.456h-2.457
			c-0.305,0-0.609-0.133-0.792-0.361l-6.519-7.61c-0.081-0.114-0.244-0.057-0.244,0.076V32.039"/>
		<path fill="#FFFFFF" d="M94.709,18.103c0-0.247,0.223-0.457,0.487-0.457h3.066c0.264,0,0.488,0.209,0.488,0.457v7.619
			c0,3.824-2.56,6.773-7.29,6.773c-4.752,0-7.27-2.949-7.27-6.773v-7.619c0-0.247,0.223-0.457,0.488-0.457h3.087
			c0.264,0,0.487,0.209,0.487,0.457v7.391c0,2.15,1.097,3.329,3.209,3.329c2.131,0,3.249-1.179,3.249-3.329V18.103"/>
		<path fill="#FFFFFF" d="M100.667,28.417c-0.019-0.259,0.237-0.519,0.515-0.519h2.672c0.455,0,0.554,0.092,0.792,0.482
			c0.277,0.482,1.088,0.927,2.475,0.927c1.485,0,1.959-0.464,1.959-0.89c0-0.612-0.771-0.982-2.632-1.576
			c-2.454-0.76-5.68-1.873-5.68-4.858c0-2.763,2.514-4.487,6.036-4.487c3.603,0,6.116,1.761,6.314,4.357
			c0.02,0.259-0.237,0.519-0.515,0.519h-2.751c-0.376,0-0.554-0.167-0.672-0.5c-0.238-0.612-0.989-1.168-2.297-1.168
			c-1.346,0-1.88,0.501-1.88,0.982c0,0.575,0.712,0.871,2.553,1.465c2.137,0.705,5.779,1.891,5.779,5.062
			c0,2.818-2.612,4.302-6.136,4.302C103.696,32.515,100.945,31.069,100.667,28.417"/>
		<path fill="#FFFFFF" d="M68.644,32.495c-0.258-0.039-0.367-0.327-0.174-0.522l4.772-4.49c0.207-0.181,0.517-0.079,0.559,0.163
			v1.365c0.004,0.014,0.014,0.026,0.03,0.029h7.512c0.25,0,0.462,0.198,0.462,0.433v2.57c0,0.245-0.221,0.452-0.482,0.452H68.644"/>
		<path fill="#FFFFFF" d="M81.805,19.472c-0.042-0.242-0.352-0.344-0.559-0.163l-1.234,1.156c-0.03,0.018-0.07,0.007-0.082-0.026
			h-0.002c-0.807-1.872-2.819-2.955-5.047-2.955l-0.001-0.001c-2.652,0-5.66,1.65-5.66,5.228c0,0.334,0.138,0.426,0.357,0.426h3.166
			c0.238,0,0.337-0.092,0.337-0.426c0-1.056,0.732-1.631,1.741-1.631l0.004-0.002c1.509,0,2.407,0.812,2.407,1.984h-0.001
			c0,0.002,0,0.005,0,0.007l-1.908,1.787c-0.193,0.194-0.084,0.484,0.174,0.524h5.845c0.25,0,0.462-0.198,0.462-0.433V19.472"/>
	</g>
</g>
<g id="Turn2us">
</g>
</svg>
