<?xml version="1.0" encoding="utf-8"?>
<!-- Generator: Adobe Illustrator 24.1.2, SVG Export Plug-In . SVG Version: 6.00 Build 0)  -->
<svg version="1.1" id="Layer_1" xmlns="http://www.w3.org/2000/svg" xmlns:xlink="http://www.w3.org/1999/xlink" x="0px" y="0px"
	 viewBox="0 0 24 20" style="enable-background:new 0 0 24 20;" xml:space="preserve">
<style type="text/css">
	.st0{fill-rule:evenodd;clip-rule:evenodd;fill:#FFFFFF;}
</style>
<desc>Created with Sketch.</desc>
<g id="Page-1">
	<g id="Desktop-design" transform="translate(-1023.000000, -3056.000000)">
		<path id="Path-Copy-4" class="st0" d="M1044.5,3061c0.3,7.1-4.9,15-14,15c-2.8,0-5.4-0.8-7.5-2.3c2.6,0.3,5.2-0.4,7.3-2.1
			c-2.2,0-4-1.5-4.6-3.5c0.8,0.2,1.5,0.1,2.2-0.1c-2.4-0.5-4-2.7-3.9-5c0.7,0.4,1.4,0.6,2.2,0.6c-2.2-1.5-2.8-4.5-1.5-6.7
			c2.4,3.1,6.1,5.1,10.1,5.3c-0.7-3.2,1.6-6.2,4.8-6.2c1.4,0,2.7,0.6,3.6,1.6c1.1-0.2,2.2-0.6,3.1-1.2c-0.4,1.2-1.1,2.2-2.2,2.8
			c1-0.1,1.9-0.4,2.8-0.8C1046.3,3059.4,1045.5,3060.3,1044.5,3061L1044.5,3061z"/>
	</g>
</g>
</svg>
